<?xml version="1.0" standalone="no"?>
<!DOCTYPE svg PUBLIC "-//W3C//DTD SVG 20010904//EN"
 "http://www.w3.org/TR/2001/REC-SVG-20010904/DTD/svg10.dtd">
<svg version="1.0" xmlns="http://www.w3.org/2000/svg"
 width="1024.000000pt" height="1024.000000pt" viewBox="0 0 1024.000000 1024.000000"
 preserveAspectRatio="xMidYMid meet">
<metadata>
Created by potrace 1.14, written by Peter Selinger 2001-2017
</metadata>
<g transform="translate(0.000000,1024.000000) scale(0.100000,-0.100000)"
fill="#000000" stroke="none">
<path d="M2339 7606 c-2 -2 -38 -7 -79 -10 -94 -9 -130 -13 -205 -27 -33 -6
-71 -13 -85 -16 -138 -25 -337 -91 -480 -159 -400 -192 -666 -475 -784 -837
-64 -195 -78 -475 -36 -697 84 -444 372 -755 885 -958 252 -100 436 -151 923
-257 399 -88 685 -189 802 -283 63 -51 77 -69 108 -132 23 -48 27 -67 27 -145
-1 -102 -20 -157 -81 -232 -76 -92 -234 -173 -394 -199 -14 -3 -31 -7 -38 -9
-7 -3 -59 -8 -115 -11 -312 -20 -504 4 -661 82 -138 70 -221 144 -311 279 -30
44 -62 87 -72 95 -44 37 -80 58 -113 66 -19 4 -250 8 -514 8 -462 1 -479 0
-514 -19 -20 -11 -47 -36 -60 -55 -22 -33 -23 -41 -17 -125 3 -49 8 -92 10
-95 2 -3 6 -23 9 -45 11 -67 66 -215 114 -305 130 -245 332 -445 608 -599 154
-86 389 -178 529 -207 105 -21 230 -44 274 -49 30 -4 63 -8 73 -10 134 -26
766 -26 908 0 25 4 92 14 140 20 25 3 53 8 62 11 9 3 25 7 35 9 10 2 41 9 68
15 28 6 59 13 70 16 143 29 503 177 599 247 6 4 50 34 97 67 319 224 526 571
565 950 7 73 7 277 -1 330 -3 19 -7 51 -10 70 -31 232 -134 453 -282 605 -55
58 -195 175 -208 175 -4 0 -26 13 -49 29 -80 55 -308 158 -476 214 -150 50
-416 122 -560 151 -14 3 -36 7 -50 10 -14 3 -45 9 -70 12 -25 3 -47 7 -50 9
-3 2 -77 20 -165 40 -88 20 -180 43 -205 50 -25 8 -92 28 -150 45 -384 116
-528 283 -474 548 32 157 138 248 359 308 63 17 165 26 297 26 64 0 125 -3
135 -6 10 -3 33 -8 52 -11 81 -14 222 -74 278 -118 82 -65 138 -128 169 -193
18 -39 42 -80 51 -90 27 -30 84 -62 123 -70 19 -4 256 -7 525 -8 471 -1 492 0
530 19 54 27 77 70 76 143 0 150 -73 346 -199 537 -134 202 -356 400 -592 527
-219 118 -516 212 -770 243 -25 3 -61 8 -80 11 -39 6 -546 15 -551 10z"/>
<path d="M6820 7539 c-136 -6 -166 -15 -224 -72 -44 -42 -57 -69 -111 -222
-25 -71 -50 -139 -55 -150 -7 -15 -460 -1253 -655 -1790 -18 -49 -83 -227
-145 -395 -92 -253 -263 -718 -314 -860 -7 -19 -63 -170 -123 -335 -279 -759
-303 -827 -303 -863 0 -50 28 -102 69 -129 l34 -23 481 0 c536 1 538 2 593 67
31 37 43 65 179 428 66 177 75 201 112 300 l18 50 925 3 924 2 64 -167 c198
-521 224 -582 260 -622 23 -25 51 -43 78 -50 28 -8 194 -12 507 -12 495 0 487
0 543 48 12 11 28 40 34 66 14 52 33 -8 -196 617 -31 85 -68 187 -82 225 -14
39 -43 120 -65 180 -23 61 -56 153 -75 205 -19 52 -41 111 -48 130 -8 19 -43
118 -80 220 -36 102 -72 201 -80 220 -7 19 -32 87 -55 150 -23 63 -51 138 -62
167 -11 29 -19 55 -19 58 1 3 -6 22 -15 43 -8 20 -45 118 -80 217 -36 99 -72
198 -81 220 -8 22 -32 87 -53 145 -34 94 -297 817 -387 1060 -19 52 -38 106
-43 120 -4 14 -23 63 -40 110 -18 47 -43 117 -56 155 -25 71 -33 92 -99 266
-59 158 -135 215 -288 218 -223 5 -877 5 -987 0z m494 -1210 c3 -14 10 -35 26
-74 4 -11 23 -65 43 -120 36 -104 118 -334 192 -540 23 -66 68 -192 99 -280
32 -88 70 -196 86 -240 94 -263 173 -483 180 -505 l7 -25 -638 1 c-351 0 -640
2 -642 5 -2 2 90 272 204 599 275 785 333 952 381 1093 37 110 53 131 62 86z"/>
</g>
</svg>
